<?xml version="1.0" encoding="UTF-8" standalone="no"?>
<!-- Created with Inkscape (http://www.inkscape.org/) -->

<svg
   xmlns:dc="http://purl.org/dc/elements/1.1/"
   xmlns:cc="http://creativecommons.org/ns#"
   xmlns:rdf="http://www.w3.org/1999/02/22-rdf-syntax-ns#"
   xmlns:svg="http://www.w3.org/2000/svg"
   xmlns="http://www.w3.org/2000/svg"
   xmlns:sodipodi="http://sodipodi.sourceforge.net/DTD/sodipodi-0.dtd"
   xmlns:inkscape="http://www.inkscape.org/namespaces/inkscape"
   width="150.88878mm"
   height="150.88878mm"
   viewBox="0 0 150.88878 150.88878"
   version="1.1"
   id="svg8"
   inkscape:version="0.92.4 (5da689c313, 2019-01-14)"
   sodipodi:docname="mygo.svg">
  <defs
     id="defs2" />
  <sodipodi:namedview
     id="base"
     pagecolor="#ffffff"
     bordercolor="#666666"
     borderopacity="1.0"
     inkscape:pageopacity="0.0"
     inkscape:pageshadow="2"
     inkscape:zoom="3.959798"
     inkscape:cx="352.52336"
     inkscape:cy="325.49615"
     inkscape:document-units="mm"
     inkscape:current-layer="layer4"
     showgrid="true"
     inkscape:window-width="1920"
     inkscape:window-height="1017"
     inkscape:window-x="-8"
     inkscape:window-y="-8"
     inkscape:window-maximized="1">
    <inkscape:grid
       type="xygrid"
       id="grid4545"
       originx="-29.066022"
       originy="-93.888951" />
  </sodipodi:namedview>
  <metadata
     id="metadata5">
    <rdf:RDF>
      <cc:Work
         rdf:about="">
        <dc:format>image/svg+xml</dc:format>
        <dc:type
           rdf:resource="http://purl.org/dc/dcmitype/StillImage" />
        <dc:title></dc:title>
      </cc:Work>
    </rdf:RDF>
  </metadata>
  <g
     inkscape:groupmode="layer"
     id="layer6"
     inkscape:label="Layer 4"
     style="display:inline"
     transform="translate(-29.06602,-52.222272)">
    <path
       style="fill:#267fb6;fill-opacity:1;stroke:#000000;stroke-width:0;stroke-linecap:butt;stroke-linejoin:miter;stroke-miterlimit:4;stroke-dasharray:none;stroke-opacity:1"
       d="m 118.49319,52.222337 c -7.08884,-0.02187 -10.59996,5.556401 -12.79195,9.73817 7.12852,1.321194 14.25705,2.642385 21.38553,3.963572 -0.54025,-4.574593 -1.87108,-11.421204 -8.59358,-13.701742 z"
       id="path4674"
       inkscape:connector-curvature="0" />
    <circle
       style="fill:#267fb6;fill-opacity:1;fill-rule:evenodd;stroke:#fb0000;stroke-width:0;stroke-miterlimit:4;stroke-dasharray:none;stroke-opacity:1"
       id="path4704"
       cx="126.02577"
       cy="106.48335"
       r="66.145828"
       transform="rotate(10.5)" />
    <path
       inkscape:connector-curvature="0"
       id="path4706"
       d="m 179.95473,141.64944 c 0.0219,-7.08885 -5.55639,-10.59996 -9.73816,-12.79195 -1.32119,7.12852 -2.64239,14.25705 -3.96357,21.38553 4.5746,-0.54025 11.4212,-1.87108 13.70173,-8.59358 z"
       style="fill:#267fb6;fill-opacity:1;stroke:#000000;stroke-width:0;stroke-linecap:butt;stroke-linejoin:miter;stroke-miterlimit:4;stroke-dasharray:none;stroke-opacity:1" />
    <path
       style="fill:#267fb6;fill-opacity:1;stroke:#000000;stroke-width:0;stroke-linecap:butt;stroke-linejoin:miter;stroke-miterlimit:4;stroke-dasharray:none;stroke-opacity:1"
       d="m 90.52764,203.11099 c 7.088858,0.0219 10.59997,-5.5564 12.79196,-9.73817 -7.128526,-1.32118 -14.257045,-2.64238 -21.385542,-3.96357 0.540254,4.5746 1.871091,11.4212 8.593582,13.70174 z"
       id="path4708"
       inkscape:connector-curvature="0" />
    <path
       inkscape:connector-curvature="0"
       id="path4710"
       d="m 29.066085,113.6839 c -0.02188,7.08885 5.556405,10.59996 9.738172,12.79195 1.321192,-7.12852 2.642386,-14.25705 3.963573,-21.38553 -4.574594,0.54025 -11.42121,1.87108 -13.701745,8.59358 z"
       style="fill:#267fb6;fill-opacity:1;stroke:#000000;stroke-width:0;stroke-linecap:butt;stroke-linejoin:miter;stroke-miterlimit:4;stroke-dasharray:none;stroke-opacity:1" />
  </g>
  <g
     inkscape:groupmode="layer"
     id="layer4"
     inkscape:label="Layer 3"
     style="display:inline"
     transform="translate(-29.06602,-52.222272)">
    <circle
       style="fill:#ffffff;fill-opacity:1;fill-rule:evenodd;stroke:#fb0000;stroke-width:0;stroke-miterlimit:4;stroke-dasharray:none;stroke-opacity:1"
       id="path4664"
       cx="126.02577"
       cy="106.48335"
       r="62.177074"
       transform="rotate(10.5)" />
    <path
       style="fill:#ffffff;fill-opacity:1;stroke:#000000;stroke-width:0;stroke-linecap:butt;stroke-linejoin:miter;stroke-miterlimit:4;stroke-dasharray:none;stroke-opacity:1"
       d="m 123.40479,69.278003 -15.60917,-2.892989 c 2.50618,-6.262739 7.37281,-10.742549 9.97433,-10.260383 2.60153,0.482163 5.53949,6.408469 5.63484,13.153372 z"
       id="path4666"
       inkscape:connector-curvature="0"
       sodipodi:nodetypes="cccc" />
    <path
       sodipodi:nodetypes="ccccc"
       inkscape:connector-curvature="0"
       id="path4668"
       d="M 46.121751,108.7723 43.2325,124.38215 c -6.231021,-2.58402 -10.778679,-7.37968 -10.264122,-9.97501 0.514554,-2.59531 6.407816,-5.62356 13.153394,-5.63484 z"
       style="fill:#ffffff;fill-opacity:1;stroke:#000000;stroke-width:0;stroke-linecap:butt;stroke-linejoin:miter;stroke-miterlimit:4;stroke-dasharray:none;stroke-opacity:1" />
    <path
       style="fill:#ffffff;fill-opacity:1;stroke:#000000;stroke-width:0;stroke-linecap:butt;stroke-linejoin:miter;stroke-miterlimit:4;stroke-dasharray:none;stroke-opacity:1"
       d="m 162.89907,146.56104 2.89299,-15.60917 c 6.21743,2.61655 10.73998,7.4359 10.21187,10.02852 -0.43369,2.54733 -6.35995,5.4853 -13.10486,5.58065 z"
       id="path4670"
       inkscape:connector-curvature="0"
       sodipodi:nodetypes="cccc" />
    <path
       sodipodi:nodetypes="cccc"
       inkscape:connector-curvature="0"
       id="path4672"
       d="m 85.616028,186.0553 15.609192,2.89303 c -2.506201,6.26272 -7.372824,10.74252 -9.974361,10.26036 -2.601524,-0.48217 -5.539485,-6.40849 -5.634831,-13.15339 z"
       style="fill:#ffffff;fill-opacity:1;stroke:#000000;stroke-width:0;stroke-linecap:butt;stroke-linejoin:miter;stroke-miterlimit:4;stroke-dasharray:none;stroke-opacity:1" />
  </g>
  <g
     inkscape:groupmode="layer"
     id="layer3"
     inkscape:label="Layer 2"
     style="display:inline"
     transform="translate(-29.06602,-52.222272)">
    <circle
       style="fill:#267fb6;fill-opacity:1;fill-rule:evenodd;stroke:none;stroke-width:0;stroke-miterlimit:4;stroke-dasharray:none;stroke-opacity:1"
       id="path4592"
       cx="126.02577"
       cy="106.48335"
       r="55.562496"
       transform="rotate(10.5)" />
    <circle
       style="fill:#ffffff;fill-opacity:1;fill-rule:evenodd;stroke:none;stroke-width:0;stroke-miterlimit:4;stroke-dasharray:none;stroke-opacity:1"
       id="path4594"
       cx="126.02577"
       cy="106.48335"
       r="47.625"
       transform="rotate(10.5)" />
  </g>
  <g
     inkscape:label="Layer 1"
     inkscape:groupmode="layer"
     id="layer1"
     style="display:inline"
     transform="translate(-29.06602,-52.222272)">
    <path
       style="fill:#267fb6;fill-opacity:1;stroke:#000000;stroke-width:0;stroke-linecap:butt;stroke-linejoin:miter;stroke-miterlimit:4;stroke-dasharray:none;stroke-opacity:1"
       d="m 116.32346,63.929217 -21.204451,41.815163 -11.802231,-8.914651 4.092999,14.213061 -46.636812,4.81084 41.815164,21.20444 -8.914649,11.80224 14.213057,-4.09299 4.810845,46.63679 21.204438,-41.81515 11.80224,8.91463 -4.09299,-14.21305 46.63679,-4.81083 -41.81515,-21.20445 8.91463,-11.80224 -13.97196,2.79224 z"
       id="path4549"
       inkscape:connector-curvature="0"
       sodipodi:nodetypes="ccccccccccccccccc" />
    <path
       style="fill:#ffffff;fill-opacity:1;stroke:#000000;stroke-width:0;stroke-linecap:butt;stroke-linejoin:miter;stroke-miterlimit:4;stroke-dasharray:none;stroke-opacity:1"
       d="m 114.39479,74.335331 -19.42151,39.454729 9.53714,13.87661 -52.030577,-9.64329 38.153951,19.18043 13.876626,-9.53714 -9.643296,52.03057 19.180436,-38.15396 -9.53714,-13.87661 52.03057,9.64329 -38.15396,-19.18043 -13.87661,9.53714 z"
       id="path4585"
       inkscape:connector-curvature="0"
       sodipodi:nodetypes="ccccccccccccc" />
  </g>
</svg>
